<svg width="210" height="210" fill="none" xmlns="http://www.w3.org/2000/svg"><rect width="210" height="210" rx="13.031" fill="#fff"/><rect x="8" y="8" width="194" height="194" rx="9.122" fill="#2C2B24" fill-opacity=".08"/><rect x="8" y="8" width="78" height="194" rx="9.122" fill="#B0FF00"/><rect x="16" y="88" width="10" height="34" rx="4" fill="#000" fill-opacity=".6"/><rect x="36" y="67" width="10" height="76" rx="4" fill="#000" fill-opacity=".6"/><rect x="56" y="75" width="10" height="60" rx="4" fill="#000" fill-opacity=".6"/><rect x="76" y="31" width="10" height="148" rx="4" fill="#000" fill-opacity=".6"/><rect x="96" y="55" width="10" height="100" rx="4" fill="#000" fill-opacity=".4"/><rect x="116" y="46" width="10" height="118" rx="4" fill="#000" fill-opacity=".4"/><rect x="136" y="88" width="10" height="34" rx="4" fill="#000" fill-opacity=".4"/><rect x="156" y="38" width="10" height="134" rx="4" fill="#000" fill-opacity=".4"/><rect x="176" y="67" width="10" height="76" rx="4" fill="#2C2B24" fill-opacity=".4"/></svg>